<?xml version="1.0" encoding="UTF-8" ?>
<!DOCTYPE svg PUBLIC "-//W3C//DTD SVG 1.1//EN" "http://www.w3.org/Graphics/SVG/1.1/DTD/svg11.dtd">
<svg width="1038pt" height="402pt" viewBox="0 0 1038 402" version="1.1" xmlns="http://www.w3.org/2000/svg">
<g id="#009fe3ff">
<path fill="#009fe3" opacity="1.00" d=" M 0.00 0.00 L 331.88 0.00 C 331.87 56.68 331.90 113.36 331.86 170.03 C 331.67 203.26 322.96 236.23 307.57 265.63 C 292.48 294.70 271.52 320.42 247.69 342.77 C 224.63 364.28 198.97 383.04 171.38 398.33 C 169.55 399.60 166.75 400.09 165.59 402.00 L 165.38 402.00 C 165.09 401.69 164.52 401.06 164.24 400.74 C 141.56 388.63 120.29 373.97 100.51 357.57 C 73.00 334.61 48.39 307.74 30.23 276.73 C 12.14 246.08 1.18 211.08 0.00 175.43 L 0.00 0.00 M 186.59 35.78 C 176.36 37.13 166.05 41.21 159.09 49.07 C 153.44 55.27 150.72 63.70 150.61 71.99 C 150.60 137.31 150.61 202.63 150.61 267.94 C 150.49 274.25 150.76 280.73 148.86 286.83 C 147.86 290.13 145.45 293.14 142.04 294.10 C 137.20 295.52 131.54 295.53 127.14 292.81 C 122.40 289.55 121.44 283.35 121.02 278.02 C 120.57 273.41 121.39 268.58 119.84 264.13 C 117.70 258.15 111.38 254.02 105.04 254.47 C 98.24 254.62 92.08 260.10 91.06 266.81 C 89.68 276.39 94.25 286.30 102.06 291.91 C 113.15 299.99 127.52 301.89 140.91 301.09 C 153.60 300.25 166.97 295.28 174.47 284.49 C 179.32 277.73 181.00 269.19 180.52 260.99 C 180.51 196.35 180.52 131.71 180.52 67.07 C 180.98 60.48 180.36 53.47 183.36 47.37 C 186.71 40.96 195.44 40.54 201.58 42.47 C 208.10 44.55 209.80 52.10 210.17 58.11 C 210.98 63.38 209.45 69.07 212.10 73.96 C 215.34 80.43 223.51 83.78 230.33 81.25 C 236.99 79.13 241.22 71.94 240.41 65.08 C 240.01 55.79 234.31 47.31 226.37 42.69 C 214.52 35.63 200.07 34.32 186.59 35.78 M 90.99 105.99 C 91.14 147.49 90.59 188.98 90.74 230.49 C 100.75 230.51 110.75 230.51 120.76 230.49 C 120.76 188.99 120.76 147.49 120.76 105.99 C 110.83 105.96 100.91 105.98 90.99 105.99 M 196.61 105.99 C 196.61 112.91 196.58 119.84 196.62 126.77 C 201.24 126.76 205.85 126.74 210.47 126.78 C 210.51 161.36 210.46 195.93 210.49 230.51 C 220.49 230.52 230.49 230.53 240.49 230.51 C 240.52 195.93 240.48 161.34 240.51 126.76 C 245.07 126.76 249.63 126.77 254.20 126.76 C 254.33 119.83 254.23 112.91 254.25 105.99 C 235.04 105.97 215.82 105.97 196.61 105.99 Z" />
</g>
<g id="#4c565cff">
<path fill="#4c565c" opacity="1.00" d=" M 535.09 18.25 C 543.21 13.30 551.29 8.27 558.92 2.59 C 561.76 6.93 564.56 11.30 567.37 15.67 C 559.71 21.25 551.49 26.02 543.03 30.29 C 540.37 26.28 537.74 22.26 535.09 18.25 Z" />
<path fill="#4c565c" opacity="1.00" d=" M 607.33 48.36 C 613.96 40.13 624.85 37.12 634.97 36.23 C 648.48 35.21 662.16 36.57 675.32 39.76 C 674.52 46.17 673.67 52.58 672.82 58.99 C 662.96 57.27 652.97 56.01 642.95 55.99 C 637.78 56.14 632.11 56.60 627.95 60.02 C 624.27 63.17 623.43 68.32 623.38 72.92 C 623.37 88.30 623.38 103.68 623.37 119.05 C 623.42 123.68 624.21 128.86 627.89 132.06 C 631.75 135.36 637.10 135.93 641.98 136.12 C 652.33 136.26 662.64 134.90 672.82 133.16 C 673.67 139.57 674.50 145.98 675.33 152.39 C 663.18 155.36 650.61 156.64 638.11 156.14 C 628.48 155.61 618.30 153.65 610.72 147.28 C 603.93 141.66 600.94 132.63 600.87 124.03 C 600.87 106.69 600.88 89.34 600.87 72.00 C 600.52 63.74 601.96 54.92 607.33 48.36 Z" />
<path fill="#4c565c" opacity="1.00" d=" M 895.19 36.17 C 908.45 35.27 921.85 36.65 934.76 39.74 C 933.94 46.16 933.07 52.57 932.26 58.98 C 922.27 57.28 912.17 55.96 902.02 56.00 C 896.91 56.19 891.24 56.65 887.24 60.18 C 883.36 63.60 882.79 69.12 882.76 73.98 C 882.76 88.98 882.72 103.99 882.77 118.99 C 882.82 123.97 883.81 129.72 888.20 132.75 C 893.39 136.28 900.00 136.19 906.03 136.10 C 914.83 135.80 923.59 134.66 932.27 133.17 C 933.08 139.57 933.94 145.97 934.76 152.38 C 921.46 155.61 907.64 156.96 893.99 155.87 C 884.32 154.98 874.03 152.13 867.41 144.56 C 861.73 138.19 860.04 129.33 860.24 121.03 C 860.26 103.68 860.23 86.34 860.25 68.99 C 860.28 60.88 862.55 52.35 868.43 46.48 C 875.40 39.42 885.59 36.93 895.19 36.17 Z" />
<path fill="#4c565c" opacity="1.00" d=" M 955.74 48.75 C 964.45 38.82 978.42 36.16 991.04 35.89 C 1004.01 35.74 1018.35 37.58 1028.20 46.86 C 1033.88 51.96 1036.25 59.44 1038.00 66.63 L 1038.00 125.49 C 1036.86 129.40 1035.98 133.44 1034.20 137.12 C 1030.91 143.90 1024.85 149.06 1017.96 151.93 C 1008.56 155.86 998.16 156.57 988.09 156.14 C 977.68 155.60 966.72 153.27 958.62 146.29 C 951.61 140.35 948.17 131.08 948.02 122.05 C 947.96 106.03 948.04 90.01 947.98 74.00 C 947.62 65.06 949.64 55.57 955.74 48.75 M 982.44 56.66 C 978.74 57.66 975.08 59.64 973.02 62.98 C 970.91 66.23 970.47 70.22 970.49 74.01 C 970.51 89.02 970.49 104.04 970.50 119.05 C 970.48 123.63 971.63 128.61 975.21 131.76 C 979.79 135.77 986.18 136.55 992.04 136.64 C 998.03 136.69 1004.52 136.19 1009.55 132.57 C 1013.82 129.50 1015.30 123.99 1015.24 118.97 C 1015.22 103.32 1015.30 87.67 1015.21 72.01 C 1015.23 66.31 1012.39 60.34 1006.94 58.02 C 999.29 54.72 990.45 54.93 982.44 56.66 Z" />
<path fill="#4c565c" opacity="1.00" d=" M 406.76 37.63 C 436.29 37.62 465.83 37.62 495.37 37.63 C 495.38 44.17 495.38 50.71 495.37 57.25 C 484.37 57.26 473.37 57.24 462.38 57.26 C 462.38 89.67 462.38 122.08 462.38 154.49 C 454.83 154.51 447.29 154.51 439.74 154.49 C 439.75 122.08 439.75 89.66 439.74 57.25 C 428.75 57.24 417.75 57.26 406.75 57.25 C 406.74 50.71 406.74 44.17 406.76 37.63 Z" />
<path fill="#4c565c" opacity="1.00" d=" M 510.39 154.51 C 510.36 115.54 510.36 76.58 510.39 37.61 C 534.63 37.64 558.88 37.61 583.12 37.63 C 583.13 44.17 583.13 50.71 583.12 57.25 C 566.42 57.26 549.71 57.25 533.01 57.25 C 532.99 66.62 533.00 75.99 533.01 85.37 C 548.42 85.38 563.83 85.36 579.25 85.38 C 579.25 91.88 579.26 98.37 579.25 104.87 C 563.83 104.89 548.42 104.87 533.01 104.88 C 532.99 114.88 532.99 124.88 533.01 134.87 C 549.71 134.88 566.42 134.87 583.12 134.88 C 583.13 141.42 583.13 147.96 583.12 154.50 C 558.88 154.51 534.63 154.49 510.39 154.51 Z" />
<path fill="#4c565c" opacity="1.00" d=" M 693.88 37.63 C 703.87 37.62 713.86 37.62 723.86 37.63 C 738.88 67.04 753.72 96.55 768.76 125.95 C 768.73 96.51 768.75 67.07 768.75 37.63 C 776.08 37.61 783.40 37.63 790.73 37.62 C 790.78 76.57 790.74 115.53 790.75 154.49 C 780.76 154.52 770.76 154.50 760.77 154.50 C 745.82 125.16 730.99 95.75 715.93 66.47 C 715.81 95.81 715.91 125.15 715.88 154.49 C 708.54 154.51 701.21 154.51 693.88 154.49 C 693.87 115.54 693.87 76.58 693.88 37.63 Z" />
<path fill="#4c565c" opacity="1.00" d=" M 815.63 37.63 C 823.13 37.62 830.62 37.62 838.12 37.63 C 838.10 76.59 838.19 115.55 838.08 154.51 C 830.59 154.49 823.10 154.52 815.62 154.49 C 815.63 115.53 815.61 76.58 815.63 37.63 Z" />
<path fill="#4c565c" opacity="1.00" d=" M 575.44 190.43 C 580.90 185.80 588.23 184.37 595.16 183.66 C 608.67 182.48 622.36 183.91 635.50 187.23 C 635.11 190.21 634.69 193.19 634.24 196.16 C 620.99 193.42 607.33 191.62 593.82 193.31 C 589.42 193.95 584.58 195.11 581.68 198.75 C 578.60 202.80 578.64 208.17 578.52 213.02 C 578.69 217.73 578.29 222.62 579.85 227.15 C 581.31 231.32 585.63 233.33 589.52 234.65 C 599.26 237.88 609.45 239.52 619.13 242.94 C 624.98 245.00 631.41 247.73 634.37 253.58 C 637.34 259.92 636.79 267.14 636.89 273.96 C 636.87 281.44 635.60 289.65 630.12 295.19 C 624.32 300.96 615.83 302.63 607.97 303.31 C 594.05 304.30 579.85 302.70 566.68 298.02 C 567.29 295.15 567.97 292.30 568.66 289.44 C 581.56 293.19 595.13 294.99 608.55 293.79 C 614.11 293.16 620.40 291.53 623.52 286.42 C 626.86 280.91 626.20 274.20 626.25 268.03 C 626.10 263.91 626.02 259.20 622.98 256.03 C 619.70 252.73 615.03 251.51 610.71 250.20 C 599.93 247.11 588.45 245.89 578.43 240.57 C 573.61 238.11 570.16 233.40 569.13 228.11 C 567.79 221.84 567.88 215.37 568.01 209.00 C 568.27 202.26 570.05 194.94 575.44 190.43 Z" />
<path fill="#4c565c" opacity="1.00" d=" M 792.61 183.80 C 805.51 182.54 819.63 182.97 830.87 190.19 C 839.46 195.67 843.65 206.01 843.82 215.92 C 843.95 233.60 843.84 251.29 843.87 268.98 C 843.93 278.15 841.19 287.90 834.11 294.15 C 825.69 301.63 813.92 303.47 803.04 303.63 C 792.00 303.62 780.05 302.06 771.27 294.76 C 763.96 288.79 760.87 279.11 760.81 269.92 C 760.68 252.96 760.77 235.99 760.76 219.03 C 760.69 210.83 762.34 202.17 767.71 195.70 C 773.74 188.25 783.37 184.91 792.61 183.80 M 790.55 193.72 C 786.15 194.62 781.78 196.27 778.40 199.29 C 773.09 203.87 771.46 211.19 771.42 217.92 C 771.31 233.94 771.41 249.96 771.37 265.98 C 771.34 272.31 771.79 279.11 775.59 284.45 C 780.40 291.27 789.15 293.45 797.04 294.00 C 806.41 294.40 816.69 294.31 824.73 288.79 C 830.79 284.62 833.12 276.97 833.21 269.93 C 833.27 252.31 833.26 234.69 833.22 217.07 C 833.26 209.06 829.97 200.30 822.40 196.59 C 812.59 191.80 801.08 192.03 790.55 193.72 Z" />
<path fill="#4c565c" opacity="1.00" d=" M 439.24 185.01 C 442.79 184.99 446.33 184.99 449.88 185.01 C 449.88 220.79 449.87 256.58 449.88 292.37 C 467.67 292.40 485.47 292.33 503.26 292.40 C 503.25 295.55 503.25 298.71 503.24 301.88 C 481.91 301.88 460.58 301.89 439.25 301.87 C 439.24 262.92 439.25 223.96 439.24 185.01 Z" />
<path fill="#4c565c" opacity="1.00" d=" M 527.00 185.00 C 530.54 185.00 534.09 184.99 537.63 185.01 C 537.62 223.96 537.63 262.92 537.63 301.87 C 534.08 301.88 530.54 301.88 527.01 301.88 C 526.99 262.92 527.00 223.96 527.00 185.00 Z" />
<path fill="#4c565c" opacity="1.00" d=" M 665.12 185.01 C 680.41 185.00 695.71 184.98 711.00 185.02 C 718.71 185.12 727.30 187.56 731.66 194.43 C 735.51 200.20 735.21 207.40 735.12 214.04 C 734.96 220.06 735.95 226.51 733.01 232.05 C 730.79 236.41 726.49 239.19 722.04 240.90 C 728.20 241.94 733.83 245.87 736.49 251.58 C 740.13 258.87 738.51 267.22 738.89 275.03 C 739.17 281.31 738.19 288.05 734.01 293.01 C 728.76 299.44 720.11 301.79 712.10 301.86 C 696.44 301.90 680.78 301.87 665.13 301.87 C 665.11 262.92 665.13 223.96 665.12 185.01 M 675.76 194.25 C 675.74 208.62 675.76 222.99 675.75 237.36 C 686.49 237.36 697.23 237.41 707.97 237.35 C 713.41 237.20 719.42 235.23 722.32 230.30 C 725.49 225.11 724.26 218.79 724.50 213.04 C 724.34 208.48 725.26 203.43 722.63 199.37 C 720.16 195.57 715.30 194.39 711.03 194.28 C 699.27 194.21 687.51 194.27 675.76 194.25 M 675.76 246.63 C 675.73 261.94 675.80 277.24 675.72 292.55 C 687.81 292.72 699.90 292.58 712.00 292.62 C 717.07 292.61 722.81 291.27 725.84 286.82 C 729.05 282.20 728.12 276.31 728.24 271.02 C 728.07 265.35 729.13 259.14 725.98 254.06 C 722.70 248.61 715.92 246.78 709.94 246.66 C 698.55 246.58 687.15 246.65 675.76 246.63 Z" />
<path fill="#4c565c" opacity="1.00" d=" M 901.75 185.00 C 906.90 184.97 912.06 185.06 917.22 184.94 C 931.21 223.85 944.84 262.90 958.66 301.87 C 955.17 301.88 951.68 301.88 948.20 301.88 C 944.44 291.63 940.70 281.38 936.95 271.13 C 918.62 271.13 900.29 271.12 881.96 271.13 C 878.24 281.37 874.61 291.65 870.87 301.88 C 867.38 301.88 863.89 301.88 860.41 301.87 C 874.17 262.91 887.95 223.95 901.75 185.00 M 885.20 262.10 C 901.37 262.15 917.55 262.11 933.73 262.12 C 925.70 238.49 917.42 214.94 909.55 191.25 C 901.27 214.81 893.32 238.49 885.20 262.10 Z" />
</g>
<g id="#ffffffff">
<path fill="#ffffff" opacity="1.00" d=" M 186.59 35.78 C 200.07 34.32 214.52 35.63 226.37 42.69 C 234.31 47.31 240.01 55.79 240.41 65.08 C 241.22 71.94 236.99 79.13 230.33 81.25 C 223.51 83.78 215.34 80.43 212.10 73.96 C 209.45 69.07 210.98 63.38 210.17 58.11 C 209.80 52.10 208.10 44.55 201.58 42.47 C 195.44 40.54 186.71 40.96 183.36 47.37 C 180.36 53.47 180.98 60.48 180.52 67.07 C 180.52 131.71 180.51 196.35 180.52 260.99 C 181.00 269.19 179.32 277.73 174.47 284.49 C 166.97 295.28 153.60 300.25 140.91 301.09 C 127.52 301.89 113.15 299.99 102.06 291.91 C 94.25 286.30 89.68 276.39 91.06 266.81 C 92.08 260.10 98.24 254.62 105.04 254.47 C 111.38 254.02 117.70 258.15 119.84 264.13 C 121.39 268.58 120.57 273.41 121.02 278.02 C 121.44 283.35 122.40 289.55 127.14 292.81 C 131.54 295.53 137.20 295.52 142.04 294.10 C 145.45 293.14 147.86 290.13 148.86 286.83 C 150.76 280.73 150.49 274.25 150.61 267.94 C 150.61 202.63 150.60 137.31 150.61 71.99 C 150.72 63.70 153.44 55.27 159.09 49.07 C 166.05 41.21 176.36 37.13 186.59 35.78 Z" />
<path fill="#ffffff" opacity="1.00" d=" M 90.99 105.99 C 100.91 105.98 110.83 105.96 120.76 105.99 C 120.76 147.49 120.76 188.99 120.76 230.49 C 110.75 230.51 100.75 230.51 90.74 230.49 C 90.59 188.98 91.14 147.49 90.99 105.99 Z" />
<path fill="#ffffff" opacity="1.00" d=" M 196.61 105.99 C 215.82 105.97 235.04 105.97 254.25 105.99 C 254.23 112.91 254.33 119.83 254.20 126.76 C 249.63 126.77 245.07 126.76 240.51 126.76 C 240.48 161.34 240.52 195.93 240.49 230.51 C 230.49 230.53 220.49 230.52 210.49 230.51 C 210.46 195.93 210.51 161.36 210.47 126.78 C 205.85 126.74 201.24 126.76 196.62 126.77 C 196.58 119.84 196.61 112.91 196.61 105.99 Z" />
</g>
</svg>
